<?xml version="1.0" standalone="no"?><!DOCTYPE svg PUBLIC "-//W3C//DTD SVG 1.1//EN" "http://www.w3.org/Graphics/SVG/1.1/DTD/svg11.dtd"><svg t="1501212075920" class="icon" style="" viewBox="0 0 1024 1024" version="1.1" xmlns="http://www.w3.org/2000/svg" p-id="1019" xmlns:xlink="http://www.w3.org/1999/xlink" width="200" height="200"><defs><style type="text/css"></style></defs><path d="M512 1024C229.451852 1024 0 794.548148 0 512S229.451852 0 512 0s512 229.451852 512 512-229.451852 512-512 512z m-66.37037-310.992593c17.066667 0 34.133333-5.688889 47.407407-18.962963l254.103704-254.103703c26.548148-26.548148 26.548148-68.266667 0-94.814815s-68.266667-26.548148-94.814815 0l-208.592593 208.592593-73.955555-73.955556c-26.548148-26.548148-68.266667-26.548148-92.918519 0-26.548148 26.548148-26.548148 68.266667 0 92.918518l121.362963 121.362963c13.274074 13.274074 30.340741 18.962963 47.407408 18.962963z" fill="#0AC380" p-id="1020"></path></svg>